<svg preserveAspectRatio="none" overflow="visible" style="display: block;" width="24" height="24" viewBox="0 0 24 24" fill="none" xmlns="http://www.w3.org/2000/svg">
<g id="Trailing Icon / Show Password">
<path id="Vector" d="M3 3L21 21M10.6 10.7C10.402 11.0776 10.3299 11.5086 10.3941 11.93C10.4584 12.3515 10.6556 12.7414 10.9571 13.0429C11.2586 13.3444 11.6485 13.5416 12.07 13.6059C12.4914 13.6701 12.9224 13.598 13.3 13.4M9.9 4.25C10.59 4.09752 11.2935 4.01378 12 4C17.5 4 21 9 21 12C20.6574 13.4124 19.9702 14.7179 19 15.8M6.3 6.35C4.2 7.75 3 10.2 3 12C3 15 6.5 20 12 20C13.3 20 14.5 19.72 15.55 19.24" stroke="#69727C" stroke-width="1.8" stroke-linecap="round" stroke-linejoin="round"/>
</g>
</svg>
