<svg preserveAspectRatio="none" overflow="visible" style="display: block;" width="28" height="28" viewBox="0 0 28 28" fill="none" xmlns="http://www.w3.org/2000/svg">
<g id="teacher">
<path id="Vector" d="M11.725 2.95167L4.70167 7.53667C2.45 9.00667 2.45 12.2967 4.70167 13.7667L11.725 18.3517C12.985 19.18 15.0617 19.18 16.3217 18.3517L23.31 13.7667C25.55 12.2967 25.55 9.01833 23.31 7.54833L16.3217 2.96333C15.0617 2.12333 12.985 2.12333 11.725 2.95167Z" stroke="white" stroke-width="1.5" stroke-linecap="round" stroke-linejoin="round"/>
<path id="Vector_2" d="M6.56833 15.26L6.55667 20.7317C6.55667 22.2133 7.7 23.8 9.1 24.2667L12.8217 25.5033C13.4633 25.7133 14.525 25.7133 15.1783 25.5033L18.9 24.2667C20.3 23.8 21.4433 22.2133 21.4433 20.7317V15.3183" stroke="white" stroke-width="1.5" stroke-linecap="round" stroke-linejoin="round"/>
<path id="Vector_3" d="M24.9667 17.5V10.5" stroke="white" stroke-width="1.5" stroke-linecap="round" stroke-linejoin="round"/>
<g id="Vector_4" opacity="0">
</g>
</g>
</svg>
